<svg xmlns="http://www.w3.org/2000/svg" viewBox="0 0 82.2 82.2"><defs><style>.cls-1,.cls-2{fill:none;}.cls-2{stroke:#fff;stroke-miterlimit:10;stroke-width:0.4px;}</style></defs><title>29-cloud</title><g id="Layer_2" data-name="Layer 2"><g id="Layer_3" data-name="Layer 3"><g id="_29-cloud" data-name="29-cloud"><rect class="cls-1" width="82.2" height="82.2"/><path class="cls-2" d="M49.84,51.45A3.29,3.29,0,0,1,47.56,54a3.66,3.66,0,0,1-2.71-.7c-1.13-.73-2.11-2.14-1.55-3.36a22.34,22.34,0,0,1-2,5.49,2.65,2.65,0,0,1-.82,1.07c-.86.56-2,0-2.74-.71a5.8,5.8,0,0,1-1.6-4.7,28,28,0,0,1-1.44,5.06c-.24.61-.6,1.3-1.25,1.42a1.65,1.65,0,0,1-1.14-.33c-1.64-1.11-2.15-3.26-2.53-5.2A8.43,8.43,0,0,1,29,55.21a2.88,2.88,0,0,1-2.7,1.6,3.27,3.27,0,0,1-1.65-.87c-2.25-2-2.7-5.36-3-8.39-.18-1.81-.06-4.14,1.64-4.77a2.83,2.83,0,0,1,2.8.74,8.17,8.17,0,0,1,1.66,2.53c-.13-1.7-.09-3.75,1.36-4.63a2.92,2.92,0,0,1,3.17.3,5.39,5.39,0,0,1,1.79,2.81c0-2,.29-4.38,2.09-5.16a3.35,3.35,0,0,1,3.59.92,7.29,7.29,0,0,1,1.66,3.52A4.77,4.77,0,0,1,43.8,39a2.14,2.14,0,0,1,1.45-.3c1.28.31,1.38,2.09,2.18,3.14-.06-2,1.78-4,3.72-3.6a3.56,3.56,0,0,1,2.39,2.31A10.7,10.7,0,0,1,54,44l.09,2.7c0,1.35-.26,3.14-1.6,3.3a1.87,1.87,0,0,1-1.72-1,5.19,5.19,0,0,1-.57-1.93C49.53,48.43,50.2,50,49.84,51.45Z"/></g></g></g></svg>