<svg xmlns="http://www.w3.org/2000/svg" viewBox="0 0 104.88 104.88"><defs><style>.cls-1,.cls-2{fill:none;}.cls-2{stroke:#fff;stroke-miterlimit:10;stroke-width:0.4px;}</style></defs><title>37-cloud</title><g id="Layer_2" data-name="Layer 2"><g id="Layer_3" data-name="Layer 3"><g id="_37-cloud" data-name="37-cloud"><rect class="cls-1" width="104.88" height="104.88"/><path class="cls-2" d="M76.59,78.64a5,5,0,0,1-3.45,3.79A5.55,5.55,0,0,1,69,81.37c-1.71-1.12-3.2-3.24-2.35-5.1a33.79,33.79,0,0,1-3,8.33,3.89,3.89,0,0,1-1.24,1.61c-1.3.85-3.06,0-4.15-1.07A8.82,8.82,0,0,1,55.89,78a41.68,41.68,0,0,1-2.18,7.67c-.36.93-.91,2-1.89,2.15a2.39,2.39,0,0,1-1.73-.5c-2.49-1.67-3.26-4.93-3.83-7.87a12.65,12.65,0,0,1-1.2,4.87A4.33,4.33,0,0,1,41,86.76a4.77,4.77,0,0,1-2.5-1.32c-3.42-3.09-4.09-8.12-4.55-12.71-.28-2.74-.1-6.28,2.49-7.23a4.28,4.28,0,0,1,4.24,1.11,12.72,12.72,0,0,1,2.52,3.84c-.2-2.57-.14-5.68,2.06-7a4.43,4.43,0,0,1,4.8.46,8.16,8.16,0,0,1,2.71,4.26c0-3,.44-6.63,3.18-7.82a5.06,5.06,0,0,1,5.43,1.39,11,11,0,0,1,2.52,5.33,7.22,7.22,0,0,1,3.57-7.24,3.25,3.25,0,0,1,2.2-.45c1.94.46,2.1,3.16,3.3,4.75-.08-3,2.7-6.1,5.64-5.45a5.44,5.44,0,0,1,3.63,3.51A16.13,16.13,0,0,1,83,67.35l.14,4.08c.07,2-.39,4.76-2.43,5a2.83,2.83,0,0,1-2.6-1.5A7.84,7.84,0,0,1,77.2,72C76.13,74.05,77.14,76.45,76.59,78.64Z"/></g></g></g></svg>