<svg xmlns="http://www.w3.org/2000/svg" viewBox="0 0 150.24 150.24"><defs><style>.cls-1,.cls-2{fill:none;}.cls-2{stroke:#fff;stroke-miterlimit:10;stroke-width:0.4px;}</style></defs><title>53-cloud</title><g id="Layer_2" data-name="Layer 2"><g id="Layer_3" data-name="Layer 3"><g id="_53-cloud" data-name="53-cloud"><rect class="cls-1" width="150.24" height="150.24"/><path class="cls-2" d="M112.69,42.4a5,5,0,0,1-3.45,3.79,5.54,5.54,0,0,1-4.11-1c-1.71-1.12-3.2-3.24-2.35-5.1a33.79,33.79,0,0,1-3,8.33A4,4,0,0,1,98.57,50c-1.29.85-3.06,0-4.15-1.07A8.82,8.82,0,0,1,92,41.78a41.68,41.68,0,0,1-2.18,7.67c-.36.93-.91,2-1.89,2.15a2.44,2.44,0,0,1-1.73-.5c-2.49-1.67-3.26-4.93-3.83-7.88a12.66,12.66,0,0,1-1.2,4.88,4.35,4.35,0,0,1-4.09,2.43,4.84,4.84,0,0,1-2.5-1.32C71.15,46.12,70.48,41.09,70,36.5c-.28-2.74-.1-6.28,2.49-7.24a4.31,4.31,0,0,1,4.24,1.12,12.68,12.68,0,0,1,2.52,3.83c-.2-2.56-.14-5.67,2.06-7a4.41,4.41,0,0,1,4.81.46,8.21,8.21,0,0,1,2.7,4.26c0-3,.44-6.64,3.18-7.83a5.07,5.07,0,0,1,5.43,1.4A11,11,0,0,1,100,30.82a7.22,7.22,0,0,1,3.57-7.24,3.14,3.14,0,0,1,2.2-.45c1.94.46,2.1,3.16,3.3,4.75-.08-3,2.7-6.11,5.64-5.45a5.42,5.42,0,0,1,3.63,3.51,16.13,16.13,0,0,1,.75,5.18l.14,4.08c.07,2-.39,4.76-2.43,5a2.8,2.8,0,0,1-2.6-1.5,8,8,0,0,1-.87-2.91C112.23,37.82,113.24,40.21,112.69,42.4Z"/><path class="cls-2" d="M56.57,118.69a5,5,0,0,1-3.45,3.79,5.53,5.53,0,0,1-4.11-1c-1.71-1.12-3.2-3.24-2.35-5.1a33.93,33.93,0,0,1-3,8.33,4,4,0,0,1-1.24,1.61c-1.3.85-3.07,0-4.15-1.07a8.85,8.85,0,0,1-2.43-7.13,42.71,42.71,0,0,1-2.18,7.67c-.37.93-.91,2-1.9,2.15a2.42,2.42,0,0,1-1.72-.5c-2.49-1.67-3.26-4.93-3.84-7.88A12.69,12.69,0,0,1,25,124.39a4.35,4.35,0,0,1-4.1,2.42,4.72,4.72,0,0,1-2.49-1.31c-3.42-3.09-4.1-8.12-4.56-12.71-.27-2.75-.09-6.28,2.5-7.24a4.29,4.29,0,0,1,4.24,1.12,12.53,12.53,0,0,1,2.51,3.83c-.2-2.56-.13-5.67,2.06-7A4.41,4.41,0,0,1,30,104a8.1,8.1,0,0,1,2.7,4.25c0-3,.44-6.63,3.18-7.82a5.08,5.08,0,0,1,5.44,1.4,10.86,10.86,0,0,1,2.51,5.33,7.23,7.23,0,0,1,3.58-7.24,3.13,3.13,0,0,1,2.2-.45c1.94.46,2.1,3.16,3.3,4.75-.08-3,2.7-6.11,5.64-5.45a5.44,5.44,0,0,1,3.63,3.51,16,16,0,0,1,.75,5.18l.14,4.08c.07,2-.4,4.76-2.43,5a2.81,2.81,0,0,1-2.6-1.5,7.79,7.79,0,0,1-.87-2.92C56.11,114.11,57.12,116.5,56.57,118.69Z"/></g></g></g></svg>